<?xml version="1.0" encoding="UTF-8"?>
<svg width="768px" height="480px" viewBox="0 0 768 480" version="1.1" xmlns="http://www.w3.org/2000/svg" xmlns:xlink="http://www.w3.org/1999/xlink">
    <!-- Generator: Sketch 51.2 (57519) - http://www.bohemiancoding.com/sketch -->
    <title>controls</title>
    <desc>Created with Sketch.</desc>
    <defs></defs>
    <g id="controls" stroke="none" stroke-width="1" fill="none" fill-rule="evenodd">
        <rect fill="#FFFFFF" x="0" y="0" width="768" height="480"></rect>
        <rect id="Rectangle-Copy-45" fill="#444444" fill-rule="nonzero" x="0" y="214" width="768" height="186"></rect>
        <g id="Group" transform="translate(554.000000, 119.000000)" fill="#444444" fill-rule="nonzero">
            <rect id="Rectangle-8-Copy-246" x="12" y="0" width="4" height="16"></rect>
            <rect id="Rectangle-8-Copy-247" x="3" y="2" width="4" height="14"></rect>
            <polygon id="Rectangle-8-Copy-248" points="20 14 20 16 16 16 16 14"></polygon>
            <polygon id="Rectangle-8-Copy-249" points="20 0 20 2 16 2 16 0"></polygon>
            <polygon id="Rectangle-8-Copy-250" points="10 0 10 2 0 2 0 0"></polygon>
            <rect id="Rectangle-8-Copy-251" x="24" y="0" width="4" height="16"></rect>
            <rect id="Rectangle-8-Copy-252" x="36" y="0" width="4" height="16"></rect>
            <rect id="Rectangle-8-Copy-253" x="48" y="0" width="4" height="16"></rect>
            <rect id="Rectangle-8-Copy-254" x="60" y="0" width="4" height="16"></rect>
            <rect id="Rectangle-8-Copy-255" x="20" y="0" width="2" height="16"></rect>
            <rect id="Rectangle-8-Copy-256" x="32" y="9" width="2" height="7"></rect>
            <rect id="Rectangle-8-Copy-257" x="44" y="9" width="2" height="7"></rect>
            <polygon id="Rectangle-8-Copy-258" points="32 14 32 16 28 16 28 14"></polygon>
            <polygon id="Rectangle-8-Copy-259" points="44 14 44 16 40 16 40 14"></polygon>
            <polygon id="Rectangle-8-Copy-260" points="58 14 58 16 52 16 52 14"></polygon>
            <polygon id="Rectangle-8-Copy-261" points="34 0 34 2 28 2 28 0"></polygon>
            <polygon id="Rectangle-8-Copy-262" points="46 0 46 2 40 2 40 0"></polygon>
            <polygon id="Rectangle-8-Copy-263" points="70 0 70 2 64 2 64 0"></polygon>
            <polygon id="Rectangle-8-Copy-264" points="70 14 70 16 64 16 64 14"></polygon>
            <polygon id="Rectangle-8-Copy-265" points="68 7 68 9 64 9 64 7"></polygon>
            <polygon id="Rectangle-8-Copy-266" points="34 7 34 9 30 9 30 7"></polygon>
            <polygon id="Rectangle-8-Copy-267" points="46 7 46 9 42 9 42 7"></polygon>
        </g>
        <g id="Group-3" transform="translate(154.000000, 246.000000)" fill-rule="nonzero">
            <path d="M89,63 L59,63 L59,93 L89,93 L89,63 Z" id="Rectangle-14-Copy-5" stroke="#FFFFFF" stroke-width="2" opacity="0.2"></path>
            <path d="M125,63 L95,63 L95,93 L125,93 L125,63 Z" id="Rectangle-14-Copy-12" stroke="#FFFFFF" stroke-width="2" opacity="0.2"></path>
            <path d="M417,63 L291,63 L291,93 L417,93 L417,63 Z" id="Rectangle-14-Copy-9" stroke="#FFFFFF" stroke-width="2" opacity="0.2"></path>
            <polygon id="Rectangle-14-Copy-8" fill="#FFFFFF" points="126 26 126 58 94 58 94 26"></polygon>
            <path d="M161,63 L131,63 L131,93 L161,93 L161,63 Z" id="Rectangle-14-Copy-7" stroke="#FFFFFF" stroke-width="2" opacity="0.2"></path>
            <rect id="Rectangle-8-Copy-223" fill="#FFFFFF" x="123" y="0" width="4" height="16"></rect>
            <rect id="Rectangle-8-Copy-224" fill="#FFFFFF" x="111" y="0" width="4" height="16"></rect>
            <rect id="Rectangle-8-Copy-225" fill="#FFFFFF" x="93" y="2" width="4" height="12"></rect>
            <rect id="Rectangle-8-Copy-226" fill="#FFFFFF" x="87" y="7" width="2" height="9"></rect>
            <rect id="Rectangle-8-Copy-227" fill="#FFFFFF" x="131" y="0" width="2" height="9"></rect>
            <rect id="Rectangle-8-Copy-228" fill="#FFFFFF" x="119" y="0" width="2" height="16"></rect>
            <rect id="Rectangle-8-Copy-229" fill="#FFFFFF" x="116" y="2" width="2" height="14"></rect>
            <polygon id="Rectangle-8-Copy-230" fill="#FFFFFF" points="97 0 97 2 87 2 87 0"></polygon>
            <polygon id="Rectangle-8-Copy-231" fill="#FFFFFF" points="97 14 97 16 89 16 89 14"></polygon>
            <polygon id="Rectangle-8-Copy-232" fill="#FFFFFF" points="131 0 131 2 127 2 127 0"></polygon>
            <polygon id="Rectangle-8-Copy-233" fill="#FFFFFF" points="119 0 119 2 115 2 115 0"></polygon>
            <rect id="Rectangle-8-Copy-234" fill="#FFFFFF" transform="translate(101.000000, 8.000000) scale(1, -1) translate(-101.000000, -8.000000) " x="99" y="0" width="4" height="16"></rect>
            <rect id="Rectangle-8-Copy-235" fill="#FFFFFF" transform="translate(108.000000, 8.000000) scale(1, -1) translate(-108.000000, -8.000000) " x="107" y="0" width="2" height="16"></rect>
            <polygon id="Rectangle-8-Copy-236" fill="#FFFFFF" transform="translate(105.000000, 15.000000) scale(1, -1) translate(-105.000000, -15.000000) " points="107 14 107 16 103 16 103 14"></polygon>
            <polygon id="Rectangle-8-Copy-237" fill="#FFFFFF" points="131 7 131 9 127 9 127 7"></polygon>
            <rect id="Rectangle-8-Copy-91" fill="#FFFFFF" opacity="0.2" x="141" y="70" width="4" height="16"></rect>
            <rect id="Rectangle-8-Copy-92" fill="#FFFFFF" opacity="0.2" x="149" y="70" width="2" height="16"></rect>
            <polygon id="Rectangle-8-Copy-93" fill="#FFFFFF" opacity="0.2" points="149 84 149 86 145 86 145 84"></polygon>
            <polygon id="Rectangle-8-Copy-94" fill="#FFFFFF" opacity="0.2" points="149 70 149 72 145 72 145 70"></polygon>
            <rect id="Rectangle-8-Copy-173" fill="#444444" x="105" y="34" width="4" height="16"></rect>
            <rect id="Rectangle-8-Copy-174" fill="#444444" x="113" y="34" width="2" height="16"></rect>
            <rect id="Rectangle-8-Copy-175" fill="#444444" x="110" y="34" width="2" height="14"></rect>
            <polygon id="Rectangle-8-Copy-176" fill="#444444" points="113 48 113 50 109 50 109 48"></polygon>
            <rect id="Rectangle-8-Copy-73" fill="#FFFFFF" opacity="0.2" x="69" y="70" width="4" height="16"></rect>
            <rect id="Rectangle-8-Copy-76" fill="#FFFFFF" opacity="0.2" x="77" y="70" width="2" height="16"></rect>
            <polygon id="Rectangle-8-Copy-80" fill="#FFFFFF" opacity="0.2" points="77 70 77 72 73 72 73 70"></polygon>
            <polygon id="Rectangle-8-Copy-82" fill="#FFFFFF" opacity="0.2" points="77 77 77 79 73 79 73 77"></polygon>
            <rect id="Rectangle-8-Copy-189" fill="#FFFFFF" opacity="0.2" x="361" y="70" width="4" height="16"></rect>
            <rect id="Rectangle-8-Copy-192" fill="#FFFFFF" opacity="0.2" x="373" y="70" width="4" height="16"></rect>
            <rect id="Rectangle-8-Copy-181" fill="#FFFFFF" opacity="0.2" x="337" y="70" width="4" height="16"></rect>
            <rect id="Rectangle-8-Copy-185" fill="#FFFFFF" opacity="0.2" x="349" y="70" width="4" height="16"></rect>
            <rect id="Rectangle-8-Copy-176" fill="#FFFFFF" opacity="0.2" x="325" y="72" width="4" height="5"></rect>
            <rect id="Rectangle-8-Copy-182" fill="#FFFFFF" opacity="0.2" x="345" y="70" width="2" height="9"></rect>
            <rect id="Rectangle-8-Copy-186" fill="#FFFFFF" opacity="0.2" x="357" y="70" width="2" height="16"></rect>
            <rect id="Rectangle-8-Copy-177" fill="#FFFFFF" opacity="0.2" x="333" y="79" width="2" height="5"></rect>
            <polygon id="Rectangle-8-Copy-190" fill="#FFFFFF" opacity="0.2" points="371 84 371 86 365 86 365 84"></polygon>
            <polygon id="Rectangle-8-Copy-191" fill="#FFFFFF" opacity="0.2" points="371 70 371 72 365 72 365 70"></polygon>
            <polygon id="Rectangle-8-Copy-193" fill="#FFFFFF" opacity="0.2" points="383 70 383 72 377 72 377 70"></polygon>
            <polygon id="Rectangle-8-Copy-178" fill="#FFFFFF" opacity="0.2" points="335 70 335 72 325 72 325 70"></polygon>
            <polygon id="Rectangle-8-Copy-179" fill="#FFFFFF" opacity="0.2" points="335 77 335 79 325 79 325 77"></polygon>
            <polygon id="Rectangle-8-Copy-180" fill="#FFFFFF" opacity="0.2" points="335 84 335 86 325 86 325 84"></polygon>
            <polygon id="Rectangle-8-Copy-183" fill="#FFFFFF" opacity="0.2" points="345 70 345 72 341 72 341 70"></polygon>
            <polygon id="Rectangle-8-Copy-187" fill="#FFFFFF" opacity="0.2" points="357 70 357 72 353 72 353 70"></polygon>
            <polygon id="Rectangle-8-Copy-194" fill="#FFFFFF" opacity="0.2" points="383 84 383 86 377 86 377 84"></polygon>
            <polygon id="Rectangle-8-Copy-195" fill="#FFFFFF" opacity="0.2" points="381 77 381 79 377 79 377 77"></polygon>
            <polygon id="Rectangle-8-Copy-184" fill="#FFFFFF" opacity="0.2" points="345 77 345 79 341 79 341 77"></polygon>
            <polygon id="Rectangle-8-Copy-188" fill="#FFFFFF" opacity="0.2" points="357 77 357 79 353 79 353 77"></polygon>
            <rect id="Rectangle-8-Copy-225" fill="#FFFFFF" opacity="0.2" x="331" y="106" width="4" height="16"></rect>
            <rect id="Rectangle-8-Copy-223" fill="#FFFFFF" opacity="0.2" x="322" y="108" width="4" height="14"></rect>
            <polygon id="Rectangle-8-Copy-227" fill="#FFFFFF" opacity="0.2" points="339 120 339 122 335 122 335 120"></polygon>
            <polygon id="Rectangle-8-Copy-228" fill="#FFFFFF" opacity="0.2" points="339 106 339 108 335 108 335 106"></polygon>
            <polygon id="Rectangle-8-Copy-224" fill="#FFFFFF" opacity="0.2" points="329 106 329 108 319 108 319 106"></polygon>
            <rect id="Rectangle-8-Copy-229" fill="#FFFFFF" opacity="0.2" x="343" y="106" width="4" height="16"></rect>
            <rect id="Rectangle-8-Copy-234" fill="#FFFFFF" opacity="0.2" x="355" y="106" width="4" height="16"></rect>
            <rect id="Rectangle-8-Copy-239" fill="#FFFFFF" opacity="0.2" x="367" y="106" width="4" height="16"></rect>
            <rect id="Rectangle-8-Copy-241" fill="#FFFFFF" opacity="0.2" x="379" y="106" width="4" height="16"></rect>
            <rect id="Rectangle-8-Copy-226" fill="#FFFFFF" opacity="0.2" x="339" y="106" width="2" height="16"></rect>
            <rect id="Rectangle-8-Copy-230" fill="#FFFFFF" opacity="0.2" x="351" y="115" width="2" height="7"></rect>
            <rect id="Rectangle-8-Copy-235" fill="#FFFFFF" opacity="0.2" x="363" y="115" width="2" height="7"></rect>
            <polygon id="Rectangle-8-Copy-231" fill="#FFFFFF" opacity="0.2" points="351 120 351 122 347 122 347 120"></polygon>
            <polygon id="Rectangle-8-Copy-236" fill="#FFFFFF" opacity="0.2" points="363 120 363 122 359 122 359 120"></polygon>
            <polygon id="Rectangle-8-Copy-240" fill="#FFFFFF" opacity="0.2" points="377 120 377 122 371 122 371 120"></polygon>
            <polygon id="Rectangle-8-Copy-232" fill="#FFFFFF" opacity="0.2" points="353 106 353 108 347 108 347 106"></polygon>
            <polygon id="Rectangle-8-Copy-237" fill="#FFFFFF" opacity="0.2" points="365 106 365 108 359 108 359 106"></polygon>
            <polygon id="Rectangle-8-Copy-242" fill="#FFFFFF" opacity="0.2" points="389 106 389 108 383 108 383 106"></polygon>
            <polygon id="Rectangle-8-Copy-243" fill="#FFFFFF" opacity="0.2" points="389 120 389 122 383 122 383 120"></polygon>
            <polygon id="Rectangle-8-Copy-244" fill="#FFFFFF" opacity="0.2" points="387 113 387 115 383 115 383 113"></polygon>
            <polygon id="Rectangle-8-Copy-233" fill="#FFFFFF" opacity="0.2" points="353 113 353 115 349 115 349 113"></polygon>
            <polygon id="Rectangle-8-Copy-238" fill="#FFFFFF" opacity="0.2" points="365 113 365 115 361 115 361 113"></polygon>
            <rect id="Rectangle-8-Copy-217" fill="#FFFFFF" opacity="0.2" x="0" y="70" width="4" height="16"></rect>
            <rect id="Rectangle-8-Copy-219" fill="#FFFFFF" opacity="0.2" x="12" y="70" width="4" height="16"></rect>
            <rect id="Rectangle-8-Copy-223" fill="#FFFFFF" opacity="0.2" x="24" y="70" width="4" height="16"></rect>
            <rect id="Rectangle-8-Copy-226" fill="#FFFFFF" opacity="0.2" x="39" y="72" width="4" height="14"></rect>
            <polygon id="Rectangle-8-Copy-218" fill="#FFFFFF" opacity="0.2" points="10 84 10 86 4 86 4 84"></polygon>
            <polygon id="Rectangle-8-Copy-220" fill="#FFFFFF" opacity="0.2" points="22 70 22 72 16 72 16 70"></polygon>
            <polygon id="Rectangle-8-Copy-224" fill="#FFFFFF" opacity="0.2" points="34 70 34 72 28 72 28 70"></polygon>
            <polygon id="Rectangle-8-Copy-227" fill="#FFFFFF" opacity="0.2" points="46 70 46 72 36 72 36 70"></polygon>
            <polygon id="Rectangle-8-Copy-221" fill="#FFFFFF" opacity="0.2" points="22 84 22 86 16 86 16 84"></polygon>
            <polygon id="Rectangle-8-Copy-222" fill="#FFFFFF" opacity="0.2" points="20 77 20 79 16 79 16 77"></polygon>
            <polygon id="Rectangle-8-Copy-225" fill="#FFFFFF" opacity="0.2" points="32 77 32 79 28 79 28 77"></polygon>
            <rect id="Rectangle-8-Copy-236" fill="#FFFFFF" opacity="0.2" x="198" y="70" width="4" height="16"></rect>
            <rect id="Rectangle-8-Copy-241" fill="#FFFFFF" opacity="0.2" x="210" y="70" width="4" height="16"></rect>
            <rect id="Rectangle-8-Copy-228" fill="#FFFFFF" opacity="0.2" x="174" y="70" width="4" height="16"></rect>
            <rect id="Rectangle-8-Copy-244" fill="#FFFFFF" opacity="0.2" x="225" y="72" width="4" height="14"></rect>
            <rect id="Rectangle-8-Copy-233" fill="#FFFFFF" opacity="0.2" x="189" y="72" width="4" height="12"></rect>
            <rect id="Rectangle-8-Copy-240" fill="#FFFFFF" opacity="0.2" x="206" y="79" width="2" height="7"></rect>
            <rect id="Rectangle-8-Copy-242" fill="#FFFFFF" opacity="0.2" x="218" y="70" width="2" height="16"></rect>
            <rect id="Rectangle-8-Copy-229" fill="#FFFFFF" opacity="0.2" x="182" y="70" width="2" height="9"></rect>
            <rect id="Rectangle-8-Copy-230" fill="#FFFFFF" opacity="0.2" x="180" y="79" width="2" height="7"></rect>
            <polygon id="Rectangle-8-Copy-237" fill="#FFFFFF" opacity="0.2" points="206 84 206 86 202 86 202 84"></polygon>
            <polygon id="Rectangle-8-Copy-238" fill="#FFFFFF" opacity="0.2" points="208 70 208 72 202 72 202 70"></polygon>
            <polygon id="Rectangle-8-Copy-245" fill="#FFFFFF" opacity="0.2" points="232 70 232 72 222 72 222 70"></polygon>
            <polygon id="Rectangle-8-Copy-234" fill="#FFFFFF" opacity="0.2" points="196 70 196 72 186 72 186 70"></polygon>
            <polygon id="Rectangle-8-Copy-235" fill="#FFFFFF" opacity="0.2" points="196 84 196 86 186 86 186 84"></polygon>
            <polygon id="Rectangle-8-Copy-231" fill="#FFFFFF" opacity="0.2" points="182 70 182 72 178 72 178 70"></polygon>
            <polygon id="Rectangle-8-Copy-239" fill="#FFFFFF" opacity="0.2" points="208 77 208 79 204 79 204 77"></polygon>
            <polygon id="Rectangle-8-Copy-243" fill="#FFFFFF" opacity="0.2" points="218 77 218 79 214 79 214 77"></polygon>
            <polygon id="Rectangle-8-Copy-232" fill="#FFFFFF" opacity="0.2" points="182 77 182 79 178 79 178 77"></polygon>
        </g>
        <rect id="Rectangle-13" fill="#DADADA" fill-rule="nonzero" x="238" y="41" width="292" height="132"></rect>
        <rect id="Rectangle-13-Copy" fill="#FFFFFF" fill-rule="nonzero" x="246" y="57" width="276" height="108"></rect>
        <path d="M313,76 L287,76 L287,98 L265,98 L265,124 L287,124 L287,146 L313,146 L313,124 L335,124 L335,98 L313,98 L313,76 Z" id="Combined-Shape" stroke="#444444" stroke-width="2" opacity="0.2" fill-rule="nonzero"></path>
        <path d="M465,112 L435,112 L435,142 L465,142 L465,112 Z" id="Rectangle-14-Copy-2" stroke="#444444" stroke-width="2" opacity="0.2" fill-rule="nonzero"></path>
        <g id="Group-4" transform="translate(357.000000, 123.000000)" fill-rule="nonzero" opacity="0.2" stroke="#444444" stroke-width="2">
            <path d="M23,1 L1,1 L1,7 L23,7 L23,1 Z" id="Rectangle-14-Copy-4"></path>
            <path d="M53,1 L31,1 L31,7 L53,7 L53,1 Z" id="Rectangle-14-Copy-6"></path>
        </g>
        <polygon id="Rectangle-14-Copy-3" fill="#444444" fill-rule="nonzero" points="504 111 504 143 472 143 472 111"></polygon>
        <g id="Group-2" transform="translate(317.000000, 432.000000)" fill="#444444" fill-rule="nonzero" opacity="0.2">
            <rect id="Rectangle-8-Copy-323" x="68" y="0" width="4" height="16"></rect>
            <rect id="Rectangle-8-Copy-305" x="0" y="0" width="4" height="16"></rect>
            <rect id="Rectangle-8-Copy-317" x="36" y="0" width="4" height="16"></rect>
            <rect id="Rectangle-8-Copy-314" x="24" y="0" width="4" height="16"></rect>
            <rect id="Rectangle-8-Copy-331" x="100" y="0" width="4" height="16"></rect>
            <rect id="Rectangle-8-Copy-310" x="12" y="0" width="4" height="16"></rect>
            <rect id="Rectangle-8-Copy-327" x="88" y="0" width="4" height="16"></rect>
            <rect id="Rectangle-8-Copy-335" x="112" y="0" width="4" height="16"></rect>
            <rect id="Rectangle-8-Copy-321" x="59" y="2" width="4" height="14"></rect>
            <rect id="Rectangle-8-Copy-324" x="76" y="0" width="2" height="16"></rect>
            <rect id="Rectangle-8-Copy-306" x="8" y="0" width="2" height="16"></rect>
            <rect id="Rectangle-8-Copy-318" x="44" y="0" width="2" height="7"></rect>
            <rect id="Rectangle-8-Copy-319" x="44" y="9" width="2" height="7"></rect>
            <rect id="Rectangle-8-Copy-311" x="20" y="0" width="2" height="16"></rect>
            <rect id="Rectangle-8-Copy-328" x="96" y="0" width="2" height="16"></rect>
            <rect id="Rectangle-8-Copy-336" x="120" y="0" width="2" height="16"></rect>
            <rect id="Rectangle-8-Copy-329" x="93" y="2" width="2" height="14"></rect>
            <polygon id="Rectangle-8-Copy-325" points="76 14 76 16 72 16 72 14"></polygon>
            <polygon id="Rectangle-8-Copy-307" points="8 14 8 16 4 16 4 14"></polygon>
            <polygon id="Rectangle-8-Copy-315" points="34 14 34 16 28 16 28 14"></polygon>
            <polygon id="Rectangle-8-Copy-326" points="76 0 76 2 72 2 72 0"></polygon>
            <polygon id="Rectangle-8-Copy-308" points="8 0 8 2 4 2 4 0"></polygon>
            <polygon id="Rectangle-8-Copy-316" points="34 0 34 2 28 2 28 0"></polygon>
            <polygon id="Rectangle-8-Copy-332" points="110 0 110 2 104 2 104 0"></polygon>
            <polygon id="Rectangle-8-Copy-322" points="66 0 66 2 56 2 56 0"></polygon>
            <polygon id="Rectangle-8-Copy-312" points="20 0 20 2 16 2 16 0"></polygon>
            <polygon id="Rectangle-8-Copy-330" points="96 0 96 2 92 2 92 0"></polygon>
            <polygon id="Rectangle-8-Copy-337" points="120 0 120 2 116 2 116 0"></polygon>
            <rect id="Rectangle-8-Copy-338" transform="translate(126.000000, 8.000000) scale(1, -1) translate(-126.000000, -8.000000) " x="124" y="0" width="4" height="16"></rect>
            <rect id="Rectangle-8-Copy-339" transform="translate(133.000000, 8.000000) scale(1, -1) translate(-133.000000, -8.000000) " x="132" y="0" width="2" height="16"></rect>
            <polygon id="Rectangle-8-Copy-340" transform="translate(130.000000, 15.000000) scale(1, -1) translate(-130.000000, -15.000000) " points="132 14 132 16 128 16 128 14"></polygon>
            <polygon id="Rectangle-8-Copy-333" points="110 14 110 16 104 16 104 14"></polygon>
            <polygon id="Rectangle-8-Copy-334" points="108 7 108 9 104 9 104 7"></polygon>
            <polygon id="Rectangle-8-Copy-309" points="8 7 8 9 4 9 4 7"></polygon>
            <polygon id="Rectangle-8-Copy-320" points="44 7 44 9 40 9 40 7"></polygon>
            <polygon id="Rectangle-8-Copy-313" points="20 7 20 9 16 9 16 7"></polygon>
        </g>
        <rect id="Rectangle-17" fill="#DADADA" fill-rule="nonzero" x="381" y="0" width="6" height="41"></rect>
    </g>
</svg>