<?xml version="1.0" encoding="UTF-8"?>
<svg width="768px" height="480px" viewBox="0 0 768 480" version="1.1" xmlns="http://www.w3.org/2000/svg" xmlns:xlink="http://www.w3.org/1999/xlink">
    <!-- Generator: Sketch 51.2 (57519) - http://www.bohemiancoding.com/sketch -->
    <title>title</title>
    <desc>Created with Sketch.</desc>
    <defs></defs>
    <g id="title" stroke="none" stroke-width="1" fill="none" fill-rule="evenodd">
        <path d="M188,192 L228,192 L228,128 L188,128 L188,192 Z M188,208 L172,208 L172,128 L172,112 L244,112 L244,128 L244,208 L228,208 L188,208 Z M316,128 L276,128 L276,208 L260,208 L260,128 L260,112 L332,112 L332,128 L332,208 L316,208 L316,128 Z" id="Combined-Shape" fill="#444444" fill-rule="nonzero"></path>
        <path d="M540,128 L540,152 L580,152 L580,168 L540,168 L540,208 L524,208 L524,112 L540,112 L596,112 L596,128 L540,128 Z M452,152 L492,152 L492,168 L452,168 L452,208 L436,208 L436,112 L452,112 L508,112 L508,128 L452,128 L452,152 Z M404,128 L364,128 L364,192 L404,192 L404,128 Z M420,128 L420,192 L420,208 L348,208 L348,192 L348,128 L348,112 L420,112 L420,128 Z" id="Combined-Shape" fill="#444444" fill-rule="nonzero" opacity="0.2"></path>
        <g id="Group-3" transform="translate(305.000000, 297.000000)" fill="#444444" fill-rule="nonzero">
            <rect id="Rectangle-8-Copy-208" x="90" y="0" width="4" height="16"></rect>
            <rect id="Rectangle-8-Copy-219" x="126" y="0" width="4" height="16"></rect>
            <rect id="Rectangle-8-Copy-201" x="58" y="0" width="4" height="16"></rect>
            <rect id="Rectangle-8-Copy-75" x="102" y="0" width="4" height="16"></rect>
            <rect id="Rectangle-8-Copy-74" x="46" y="0" width="4" height="16"></rect>
            <rect id="Rectangle-8-Copy-215" x="114" y="0" width="4" height="16"></rect>
            <rect id="Rectangle-8-Copy-206" x="73" y="2" width="4" height="14"></rect>
            <rect id="Rectangle-8-Copy-193" x="37" y="2" width="4" height="14"></rect>
            <rect id="Rectangle-8-Copy-194" x="22" y="2" width="4" height="5"></rect>
            <rect id="Rectangle-8-Copy-209" x="98" y="9" width="2" height="7"></rect>
            <rect id="Rectangle-8-Copy-202" x="66" y="0" width="2" height="9"></rect>
            <rect id="Rectangle-8-Copy-203" x="64" y="9" width="2" height="7"></rect>
            <rect id="Rectangle-8-Copy-78" x="110" y="0" width="2" height="16"></rect>
            <rect id="Rectangle-8-Copy-77" x="54" y="0" width="2" height="16"></rect>
            <rect id="Rectangle-8-Copy-216" x="122" y="0" width="2" height="16"></rect>
            <rect id="Rectangle-8-Copy-217" x="119" y="2" width="2" height="14"></rect>
            <rect id="Rectangle-8-Copy-195" x="30" y="9" width="2" height="5"></rect>
            <polygon id="Rectangle-8-Copy-210" points="98 14 98 16 94 16 94 14"></polygon>
            <polygon id="Rectangle-8-Copy-211" points="100 0 100 2 94 2 94 0"></polygon>
            <polygon id="Rectangle-8-Copy-220" points="136 0 136 2 130 2 130 0"></polygon>
            <polygon id="Rectangle-8-Copy-207" points="80 0 80 2 70 2 70 0"></polygon>
            <polygon id="Rectangle-8-Copy-196" points="44 0 44 2 34 2 34 0"></polygon>
            <polygon id="Rectangle-8-Copy-197" points="32 0 32 2 22 2 22 0"></polygon>
            <polygon id="Rectangle-8-Copy-198" points="32 7 32 9 22 9 22 7"></polygon>
            <polygon id="Rectangle-8-Copy-199" points="32 14 32 16 22 16 22 14"></polygon>
            <polygon id="Rectangle-8-Copy-204" points="66 0 66 2 62 2 62 0"></polygon>
            <polygon id="Rectangle-8-Copy-213" points="110 0 110 2 106 2 106 0"></polygon>
            <polygon id="Rectangle-8-Copy-81" points="54 0 54 2 50 2 50 0"></polygon>
            <polygon id="Rectangle-8-Copy-218" points="122 0 122 2 118 2 118 0"></polygon>
            <polygon id="Rectangle-8-Copy-221" points="136 14 136 16 130 16 130 14"></polygon>
            <polygon id="Rectangle-8-Copy-222" points="134 7 134 9 130 9 130 7"></polygon>
            <polygon id="Rectangle-8-Copy-212" points="100 7 100 9 96 9 96 7"></polygon>
            <polygon id="Rectangle-8-Copy-205" points="66 7 66 9 62 9 62 7"></polygon>
            <polygon id="Rectangle-8-Copy-214" points="110 7 110 9 106 9 106 7"></polygon>
            <polygon id="Rectangle-8-Copy-200" points="54 7 54 9 50 9 50 7"></polygon>
            <g id="Group-2" transform="translate(32.000000, 32.000000)" opacity="0.2">
                <rect id="Rectangle-8-Copy-240" x="60" y="0" width="4" height="16"></rect>
                <rect id="Rectangle-8-Copy-226" x="12" y="0" width="4" height="16"></rect>
                <rect id="Rectangle-8-Copy-223" x="0" y="0" width="4" height="16"></rect>
                <rect id="Rectangle-8-Copy-244" x="72" y="0" width="4" height="16"></rect>
                <rect id="Rectangle-8-Copy-235" x="48" y="0" width="4" height="16"></rect>
                <rect id="Rectangle-8-Copy-230" x="24" y="0" width="4" height="16"></rect>
                <rect id="Rectangle-8-Copy-233" x="39" y="2" width="4" height="14"></rect>
                <rect id="Rectangle-8-Copy-246" x="84" y="2" width="4" height="5"></rect>
                <rect id="Rectangle-8-Copy-241" x="68" y="0" width="2" height="16"></rect>
                <rect id="Rectangle-8-Copy-227" x="20" y="0" width="2" height="16"></rect>
                <rect id="Rectangle-8-Copy-236" x="56" y="0" width="2" height="9"></rect>
                <rect id="Rectangle-8-Copy-237" x="54" y="9" width="2" height="7"></rect>
                <rect id="Rectangle-8-Copy-231" x="32" y="0" width="2" height="16"></rect>
                <rect id="Rectangle-8-Copy-250" x="92" y="9" width="2" height="5"></rect>
                <polygon id="Rectangle-8-Copy-242" points="68 14 68 16 64 16 64 14"></polygon>
                <polygon id="Rectangle-8-Copy-228" points="20 14 20 16 16 16 16 14"></polygon>
                <polygon id="Rectangle-8-Copy-224" points="10 14 10 16 4 16 4 14"></polygon>
                <polygon id="Rectangle-8-Copy-245" points="82 14 82 16 76 16 76 14"></polygon>
                <polygon id="Rectangle-8-Copy-243" points="68 0 68 2 64 2 64 0"></polygon>
                <polygon id="Rectangle-8-Copy-229" points="20 0 20 2 16 2 16 0"></polygon>
                <polygon id="Rectangle-8-Copy-225" points="10 0 10 2 4 2 4 0"></polygon>
                <polygon id="Rectangle-8-Copy-234" points="46 0 46 2 36 2 36 0"></polygon>
                <polygon id="Rectangle-8-Copy-247" points="94 0 94 2 84 2 84 0"></polygon>
                <polygon id="Rectangle-8-Copy-248" points="94 7 94 9 84 9 84 7"></polygon>
                <polygon id="Rectangle-8-Copy-249" points="94 14 94 16 84 16 84 14"></polygon>
                <polygon id="Rectangle-8-Copy-238" points="56 0 56 2 52 2 52 0"></polygon>
                <polygon id="Rectangle-8-Copy-232" points="32 0 32 2 28 2 28 0"></polygon>
                <polygon id="Rectangle-8-Copy-239" points="56 7 56 9 52 9 52 7"></polygon>
            </g>
            <polygon id="Star-Copy-3" points="6 11.46316 2.29179607 13.4126782 3 9.28353243 0 6.35925517 4.14589803 5.75682092 6 2 7.85410197 5.75682092 12 6.35925517 9 9.28353243 9.70820393 13.4126782"></polygon>
            <polygon id="Star-Copy-4" points="152 11.46316 148.291796 13.4126782 149 9.28353243 146 6.35925517 150.145898 5.75682092 152 2 153.854102 5.75682092 158 6.35925517 155 9.28353243 155.708204 13.4126782"></polygon>
        </g>
        <g id="Group" transform="translate(131.000000, 434.000000)" fill="#444444" fill-rule="nonzero" opacity="0.2">
            <rect id="Rectangle-8-Copy-234" x="238" y="0" width="4" height="16"></rect>
            <rect id="Rectangle-8-Copy-298" x="496" y="0" width="4" height="16"></rect>
            <rect id="Rectangle-8-Copy-156" x="60" y="0" width="4" height="16"></rect>
            <rect id="Rectangle-8-Copy-248" x="294" y="0" width="4" height="16"></rect>
            <rect id="Rectangle-8-Copy-220" x="202" y="0" width="4" height="16"></rect>
            <rect id="Rectangle-8-Copy-163" x="48" y="0" width="4" height="16"></rect>
            <rect id="Rectangle-8-Copy-280" x="416" y="0" width="4" height="16"></rect>
            <rect id="Rectangle-8-Copy-276" x="404" y="0" width="4" height="16"></rect>
            <rect id="Rectangle-8-Copy-202" x="96" y="0" width="4" height="16"></rect>
            <rect id="Rectangle-8-Copy-290" x="460" y="0" width="4" height="16"></rect>
            <rect id="Rectangle-8-Copy-257" x="318" y="0" width="4" height="16"></rect>
            <rect id="Rectangle-8-Copy-225" x="214" y="0" width="4" height="16"></rect>
            <rect id="Rectangle-8-Copy-286" x="448" y="0" width="4" height="16"></rect>
            <rect id="Rectangle-8-Copy-266" x="368" y="0" width="4" height="16"></rect>
            <rect id="Rectangle-8-Copy-253" x="306" y="0" width="4" height="16"></rect>
            <rect id="Rectangle-8-Copy-230" x="226" y="0" width="4" height="16"></rect>
            <rect id="Rectangle-8-Copy-74" x="72" y="0" width="4" height="16"></rect>
            <rect id="Rectangle-8-Copy-282" x="436" y="0" width="4" height="16"></rect>
            <rect id="Rectangle-8-Copy-198" x="84" y="0" width="4" height="16"></rect>
            <rect id="Rectangle-8-Copy-299" x="484" y="0" width="4" height="16"></rect>
            <rect id="Rectangle-8-Copy-270" x="380" y="0" width="4" height="16"></rect>
            <rect id="Rectangle-8-Copy-245" x="282" y="0" width="4" height="16"></rect>
            <rect id="Rectangle-8-Copy-295" x="475" y="2" width="4" height="12"></rect>
            <rect id="Rectangle-8-Copy-273" x="395" y="2" width="4" height="12"></rect>
            <rect id="Rectangle-8-Copy-146" x="6" y="2" width="4" height="12"></rect>
            <rect id="Rectangle-8-Copy-206" x="108" y="2" width="4" height="5"></rect>
            <rect id="Rectangle-8-Copy-151" x="12" y="2" width="4" height="5"></rect>
            <rect id="Rectangle-8-Copy-235" x="246" y="0" width="2" height="16"></rect>
            <rect id="Rectangle-8-Copy-300" x="504" y="0" width="2" height="16"></rect>
            <rect id="Rectangle-8-Copy-157" x="68" y="9" width="2" height="7"></rect>
            <rect id="Rectangle-8-Copy-147" x="0" y="7" width="2" height="9"></rect>
            <rect id="Rectangle-8-Copy-249" x="302" y="0" width="2" height="16"></rect>
            <rect id="Rectangle-8-Copy-221" x="210" y="0" width="2" height="16"></rect>
            <rect id="Rectangle-8-Copy-167" x="56" y="0" width="2" height="7"></rect>
            <rect id="Rectangle-8-Copy-193" x="56" y="9" width="2" height="7"></rect>
            <rect id="Rectangle-8-Copy-291" x="468" y="0" width="2" height="9"></rect>
            <rect id="Rectangle-8-Copy-258" x="326" y="0" width="2" height="9"></rect>
            <rect id="Rectangle-8-Copy-226" x="222" y="0" width="2" height="9"></rect>
            <rect id="Rectangle-8-Copy-292" x="466" y="9" width="2" height="7"></rect>
            <rect id="Rectangle-8-Copy-259" x="324" y="9" width="2" height="7"></rect>
            <rect id="Rectangle-8-Copy-227" x="220" y="9" width="2" height="7"></rect>
            <rect id="Rectangle-8-Copy-287" x="456" y="0" width="2" height="16"></rect>
            <rect id="Rectangle-8-Copy-267" x="376" y="0" width="2" height="16"></rect>
            <rect id="Rectangle-8-Copy-254" x="314" y="0" width="2" height="16"></rect>
            <rect id="Rectangle-8-Copy-231" x="234" y="0" width="2" height="16"></rect>
            <rect id="Rectangle-8-Copy-77" x="80" y="0" width="2" height="16"></rect>
            <rect id="Rectangle-8-Copy-283" x="444" y="0" width="2" height="16"></rect>
            <rect id="Rectangle-8-Copy-199" x="92" y="0" width="2" height="16"></rect>
            <rect id="Rectangle-8-Copy-301" x="492" y="0" width="2" height="16"></rect>
            <rect id="Rectangle-8-Copy-271" x="388" y="0" width="2" height="16"></rect>
            <rect id="Rectangle-8-Copy-246" x="290" y="0" width="2" height="16"></rect>
            <rect id="Rectangle-8-Copy-284" x="441" y="2" width="2" height="14"></rect>
            <rect id="Rectangle-8-Copy-200" x="89" y="2" width="2" height="14"></rect>
            <rect id="Rectangle-8-Copy-207" x="116" y="9" width="2" height="5"></rect>
            <rect id="Rectangle-8-Copy-155" x="20" y="9" width="2" height="5"></rect>
            <polygon id="Rectangle-8-Copy-236" points="246 14 246 16 242 16 242 14"></polygon>
            <polygon id="Rectangle-8-Copy-302" points="504 14 504 16 500 16 500 14"></polygon>
            <polygon id="Rectangle-8-Copy-161" points="68 14 68 16 64 16 64 14"></polygon>
            <polygon id="Rectangle-8-Copy-250" points="302 14 302 16 298 16 298 14"></polygon>
            <polygon id="Rectangle-8-Copy-222" points="210 14 210 16 206 16 206 14"></polygon>
            <polygon id="Rectangle-8-Copy-281" points="426 14 426 16 420 16 420 14"></polygon>
            <polygon id="Rectangle-8-Copy-237" points="246 0 246 2 242 2 242 0"></polygon>
            <rect id="Rectangle-8-Copy-241" x="258" y="0" width="4" height="16"></rect>
            <rect id="Rectangle-8-Copy-262" x="356" y="0" width="4" height="16"></rect>
            <rect id="Rectangle-8-Copy-240" x="266" y="0" width="2" height="16"></rect>
            <rect id="Rectangle-8-Copy-263" x="364" y="0" width="2" height="16"></rect>
            <polygon id="Rectangle-8-Copy-239" points="266 14 266 16 262 16 262 14"></polygon>
            <polygon id="Rectangle-8-Copy-264" points="364 14 364 16 360 16 360 14"></polygon>
            <polygon id="Rectangle-8-Copy-238" points="266 0 266 2 262 2 262 0"></polygon>
            <polygon id="Rectangle-8-Copy-265" points="364 0 364 2 360 2 360 0"></polygon>
            <polygon id="Rectangle-8-Copy-303" points="504 0 504 2 500 2 500 0"></polygon>
            <polygon id="Rectangle-8-Copy-195" points="70 0 70 2 64 2 64 0"></polygon>
            <polygon id="Rectangle-8-Copy-251" points="302 0 302 2 298 2 298 0"></polygon>
            <polygon id="Rectangle-8-Copy-223" points="210 0 210 2 206 2 206 0"></polygon>
            <polygon id="Rectangle-8-Copy-277" points="414 0 414 2 408 2 408 0"></polygon>
            <polygon id="Rectangle-8-Copy-203" points="106 0 106 2 100 2 100 0"></polygon>
            <polygon id="Rectangle-8-Copy-296" points="482 0 482 2 472 2 472 0"></polygon>
            <polygon id="Rectangle-8-Copy-274" points="402 0 402 2 392 2 392 0"></polygon>
            <polygon id="Rectangle-8-Copy-148" points="10 0 10 2 0 2 0 0"></polygon>
            <polygon id="Rectangle-8-Copy-297" points="482 14 482 16 472 16 472 14"></polygon>
            <polygon id="Rectangle-8-Copy-275" points="402 14 402 16 392 16 392 14"></polygon>
            <polygon id="Rectangle-8-Copy-150" points="10 14 10 16 2 16 2 14"></polygon>
            <polygon id="Rectangle-8-Copy-208" points="118 0 118 2 108 2 108 0"></polygon>
            <polygon id="Rectangle-8-Copy-152" points="22 0 22 2 12 2 12 0"></polygon>
            <polygon id="Rectangle-8-Copy-209" points="118 7 118 9 108 9 108 7"></polygon>
            <polygon id="Rectangle-8-Copy-153" points="22 7 22 9 12 9 12 7"></polygon>
            <polygon id="Rectangle-8-Copy-210" points="118 14 118 16 108 16 108 14"></polygon>
            <polygon id="Rectangle-8-Copy-154" points="22 14 22 16 12 16 12 14"></polygon>
            <polygon id="Rectangle-8-Copy-293" points="468 0 468 2 464 2 464 0"></polygon>
            <polygon id="Rectangle-8-Copy-260" points="326 0 326 2 322 2 322 0"></polygon>
            <polygon id="Rectangle-8-Copy-228" points="222 0 222 2 218 2 218 0"></polygon>
            <polygon id="Rectangle-8-Copy-288" points="456 0 456 2 452 2 452 0"></polygon>
            <polygon id="Rectangle-8-Copy-268" points="376 0 376 2 372 2 372 0"></polygon>
            <polygon id="Rectangle-8-Copy-255" points="314 0 314 2 310 2 310 0"></polygon>
            <polygon id="Rectangle-8-Copy-232" points="234 0 234 2 230 2 230 0"></polygon>
            <polygon id="Rectangle-8-Copy-81" points="80 0 80 2 76 2 76 0"></polygon>
            <polygon id="Rectangle-8-Copy-285" points="444 0 444 2 440 2 440 0"></polygon>
            <polygon id="Rectangle-8-Copy-201" points="92 0 92 2 88 2 88 0"></polygon>
            <polygon id="Rectangle-8-Copy-304" points="492 0 492 2 488 2 488 0"></polygon>
            <polygon id="Rectangle-8-Copy-272" points="388 0 388 2 384 2 384 0"></polygon>
            <polygon id="Rectangle-8-Copy-247" points="290 0 290 2 286 2 286 0"></polygon>
            <rect id="Rectangle-8-Copy-242" transform="translate(272.000000, 8.000000) scale(1, -1) translate(-272.000000, -8.000000) " x="270" y="0" width="4" height="16"></rect>
            <rect id="Rectangle-8-Copy-244" transform="translate(279.000000, 8.000000) scale(1, -1) translate(-279.000000, -8.000000) " x="278" y="0" width="2" height="16"></rect>
            <polygon id="Rectangle-8-Copy-243" transform="translate(276.000000, 15.000000) scale(1, -1) translate(-276.000000, -15.000000) " points="278 14 278 16 274 16 274 14"></polygon>
            <polygon id="Rectangle-8-Copy-278" points="414 14 414 16 408 16 408 14"></polygon>
            <polygon id="Rectangle-8-Copy-204" points="106 14 106 16 100 16 100 14"></polygon>
            <polygon id="Rectangle-8-Copy-279" points="412 7 412 9 408 9 408 7"></polygon>
            <polygon id="Rectangle-8-Copy-205" points="104 7 104 9 100 9 100 7"></polygon>
            <polygon id="Rectangle-8-Copy-196" points="70 7 70 9 66 9 66 7"></polygon>
            <polygon id="Rectangle-8-Copy-252" points="302 7 302 9 298 9 298 7"></polygon>
            <polygon id="Rectangle-8-Copy-224" points="210 7 210 9 206 9 206 7"></polygon>
            <polygon id="Rectangle-8-Copy-194" points="56 7 56 9 52 9 52 7"></polygon>
            <polygon id="Rectangle-8-Copy-294" points="468 7 468 9 464 9 464 7"></polygon>
            <polygon id="Rectangle-8-Copy-261" points="326 7 326 9 322 9 322 7"></polygon>
            <polygon id="Rectangle-8-Copy-229" points="222 7 222 9 218 9 218 7"></polygon>
            <polygon id="Rectangle-8-Copy-289" points="456 7 456 9 452 9 452 7"></polygon>
            <polygon id="Rectangle-8-Copy-269" points="376 7 376 9 372 9 372 7"></polygon>
            <polygon id="Rectangle-8-Copy-256" points="314 7 314 9 310 9 310 7"></polygon>
            <polygon id="Rectangle-8-Copy-233" points="234 7 234 9 230 9 230 7"></polygon>
            <polygon id="Rectangle-8-Copy-197" points="80 7 80 9 76 9 76 7"></polygon>
            <rect id="Rectangle-8-Copy-72" x="144" y="6" width="2" height="4"></rect>
            <rect id="Rectangle-8-Copy-75" x="148" y="0" width="2" height="16"></rect>
            <rect id="Rectangle-8-Copy-78" x="156" y="0" width="2" height="14"></rect>
            <rect id="Rectangle-8-Copy-60" x="28" y="0" width="2" height="14"></rect>
            <rect id="Rectangle-8-Copy-79" x="140" y="0" width="2" height="16"></rect>
            <polygon id="Rectangle-8-Copy-211" points="148 14 148 16 142 16 142 14"></polygon>
            <polygon id="Rectangle-8-Copy-212" points="148 0 148 2 142 2 142 0"></polygon>
            <polygon id="Rectangle-8-Copy-213" points="156 0 156 2 152 2 152 0"></polygon>
            <polygon id="Rectangle-8-Copy-61" points="28 0 28 2 24 2 24 0"></polygon>
            <polygon id="Rectangle-8-Copy-214" points="162 14 162 16 152 16 152 14"></polygon>
            <polygon id="Rectangle-8-Copy-62" points="34 14 34 16 24 16 24 14"></polygon>
            <rect id="Rectangle-8-Copy-67" transform="translate(129.000000, 11.500000) scale(1, -1) translate(-129.000000, -11.500000) " x="128" y="9" width="2" height="5"></rect>
            <rect id="Rectangle-8-Copy-68" transform="translate(137.000000, 4.500000) scale(1, -1) translate(-137.000000, -4.500000) " x="136" y="2" width="2" height="5"></rect>
            <polygon id="Rectangle-8-Copy-69" transform="translate(133.000000, 15.000000) scale(1, -1) translate(-133.000000, -15.000000) " points="138 14 138 16 128 16 128 14"></polygon>
            <polygon id="Rectangle-8-Copy-70" transform="translate(133.000000, 8.000000) scale(1, -1) translate(-133.000000, -8.000000) " points="138 7 138 9 128 9 128 7"></polygon>
            <polygon id="Rectangle-8-Copy-71" transform="translate(133.000000, 1.000000) scale(1, -1) translate(-133.000000, -1.000000) " points="138 0 138 2 128 2 128 0"></polygon>
            <rect id="Rectangle-8-Copy-215" x="164" y="2" width="2" height="12"></rect>
            <rect id="Rectangle-8-Copy-216" x="172" y="2" width="2" height="12"></rect>
            <polygon id="Rectangle-8-Copy-217" points="174 0 174 2 164 2 164 0"></polygon>
            <polygon id="Rectangle-8-Copy-218" points="172 7 172 9 166 9 166 7"></polygon>
            <polygon id="Rectangle-8-Copy-219" points="174 14 174 16 164 16 164 14"></polygon>
            <rect id="Rectangle-8-Copy-63" transform="translate(45.000000, 8.000000) scale(-1, 1) translate(-45.000000, -8.000000) " x="44" y="0" width="2" height="16"></rect>
            <polygon id="Rectangle-8-Copy-64" transform="translate(40.000000, 1.000000) scale(-1, 1) translate(-40.000000, -1.000000) " points="44 0 44 2 36 2 36 0"></polygon>
            <polygon id="Rectangle-8-Copy-65" transform="translate(40.000000, 15.000000) scale(-1, 1) translate(-40.000000, -15.000000) " points="44 14 44 16 36 16 36 14"></polygon>
            <polygon id="Rectangle-8-Copy-66" transform="translate(41.000000, 8.000000) scale(-1, 1) translate(-41.000000, -8.000000) " points="44 7 44 9 38 9 38 7"></polygon>
            <rect id="Rectangle-18" x="338" y="4" width="8" height="8"></rect>
            <rect id="Rectangle-18-Copy" x="184" y="4" width="8" height="8"></rect>
        </g>
    </g>
</svg>